<?xml version="1.0" encoding="UTF-8" standalone="no"?>
<!-- Created with Inkscape (http://www.inkscape.org/) -->

<svg
   width="300"
   height="300"
   viewBox="0 0 79.374998 79.375"
   version="1.1"
   id="svg1"
   xml:space="preserve"
   sodipodi:docname="logo-DDev-negro.svg"
   inkscape:export-filename="logo-DDev-negro.png"
   inkscape:export-xdpi="96"
   inkscape:export-ydpi="96"
   xmlns:inkscape="http://www.inkscape.org/namespaces/inkscape"
   xmlns:sodipodi="http://sodipodi.sourceforge.net/DTD/sodipodi-0.dtd"
   xmlns="http://www.w3.org/2000/svg"
   xmlns:svg="http://www.w3.org/2000/svg"><sodipodi:namedview
     id="namedview1"
     pagecolor="#ffffff"
     bordercolor="#000000"
     borderopacity="0.25"
     inkscape:showpageshadow="2"
     inkscape:pageopacity="0.0"
     inkscape:pagecheckerboard="0"
     inkscape:deskcolor="#d1d1d1"
     inkscape:document-units="mm"
     inkscape:export-bgcolor="#ffffff00" /><defs
     id="defs1" /><g
     inkscape:label="Capa 1"
     inkscape:groupmode="layer"
     id="layer1"><g
       id="g1"
       transform="matrix(0.76204451,0,0,0.76204451,-49.700894,-88.609663)"
       style="fill:#000000;fill-opacity:1"
       inkscape:label="g1"><path
         style="fill:#000000;fill-opacity:1"
         d="m 121.40922,207.09073 c 0.20391,-0.40018 1.45906,-2.60368 2.78923,-4.89666 l 2.41849,-4.16906 -2.26811,-3.90073 c -1.24746,-2.14541 -2.72178,-4.67465 -3.27626,-5.62053 -1.90522,-3.25011 -7.58013,-13.09825 -8.46175,-14.68438 -0.97682,-1.7574 -3.03828,-5.33415 -3.43108,-5.95312 -0.13852,-0.21828 -0.69172,-1.17078 -1.22933,-2.11667 -0.53761,-0.94588 -1.95104,-3.38666 -3.14095,-5.42396 -4.31288,-7.38422 -10.469556,-18.11828 -10.626316,-18.52677 -0.1427,-0.37189 0.28241,-0.40933 3.84222,-0.3384 2.201466,0.0439 4.002496,-0.0234 4.002276,-0.14946 -2.2e-4,-0.12607 -1.22079,-2.3546 -2.712376,-4.9523 l -2.71198,-4.72308 -14.11737,-0.009 c -12.81974,-0.008 -14.10247,0.0302 -13.95532,0.41364 0.13523,0.35241 1.28745,2.38178 4.90166,8.63314 l 0.41687,0.72105 4.3627,0.0727 4.36271,0.0727 3.27079,5.68854 c 1.79894,3.1287 5.2686,9.14135 7.71037,13.36146 2.44177,4.2201 4.76528,8.26823 5.16336,8.99583 0.39808,0.72761 1.05259,1.8587 1.454466,2.51354 0.40188,0.65485 2.13111,3.63141 3.84274,6.61459 1.71163,2.98317 4.42179,7.68614 6.02258,10.45104 1.6008,2.76489 4.0453,6.99161 5.43224,9.39271 4.85224,8.40031 5.35966,9.26041 5.46315,9.26041 0.0573,0 0.27108,-0.32742 0.47499,-0.7276 z m 15.39523,-26.72443 c 1.73772,-3.01873 3.89439,-6.73875 4.79261,-8.26672 0.89821,-1.52797 5.02709,-8.67172 9.17527,-15.875 4.14818,-7.20328 8.47271,-14.70422 9.61006,-16.66875 3.76984,-6.51161 4.34715,-7.53891 4.34914,-7.73906 0.001,-0.10914 -14.04741,-0.19844 -31.21887,-0.19844 -17.17146,0 -31.22083,0.0791 -31.22083,0.17589 0,0.0967 1.22039,2.29547 2.71197,4.88607 l 2.71198,4.71019 20.0422,0.009 c 11.0232,0.005 20.04218,0.0519 20.04218,0.10471 0,0.0947 -2.83803,5.04245 -8.51972,14.85296 -4.89703,8.45566 -5.61385,9.65736 -5.75956,9.65553 -0.0773,-9.7e-4 -2.70127,-4.43605 -5.83109,-9.85573 l -5.69057,-9.85396 -5.62037,-0.0714 c -3.0912,-0.0393 -5.6182,0.0203 -5.61557,0.13229 0.006,0.24118 0.66517,1.42478 3.94652,7.08287 2.71128,4.67511 7.33925,12.70941 8.15377,14.15521 0.28693,0.50932 2.42223,4.20026 4.74509,8.20208 2.32286,4.00182 4.57176,7.901 4.99755,8.66483 0.99393,1.78304 0.57437,2.19301 4.19824,-4.10228 z"
         id="path1"
         sodipodi:nodetypes="cscssssssscssccsscccsssssssscccssscsssccsssscccsssscc" /></g></g></svg>
